<?xml version="1.0" encoding="iso-8859-1"?>
<!-- Generator: Adobe Illustrator 16.0.0, SVG Export Plug-In . SVG Version: 6.00 Build 0)  -->
<!DOCTYPE svg PUBLIC "-//W3C//DTD SVG 1.1//EN" "http://www.w3.org/Graphics/SVG/1.1/DTD/svg11.dtd">
<svg xmlns="http://www.w3.org/2000/svg" xmlns:xlink="http://www.w3.org/1999/xlink" version="1.1" id="Capa_1" x="0px" y="0px" width="512px" height="512px" viewBox="0 0 49.214 49.215" style="enable-background:new 0 0 49.214 49.215;" xml:space="preserve">
<g>
	<g id="Layer_53_20_">
		<g>
			<polygon points="2.027,11.753 25.687,11.753 25.687,17.884 27.714,17.884 27.714,9.727 0,9.727 0,27.482 11.312,27.482      11.312,28.625 5.399,28.625 5.399,29.568 19.471,29.568 19.471,28.625 16.17,28.625 16.17,27.482 19.471,27.482 19.471,24.867      2.027,24.867    " fill="#FFFFFF"/>
			<path d="M49.214,37.402V19.647H21.5v17.755h11.312v1.145H26.9v0.941h16.557v-0.941h-5.785v-1.145H49.214z M23.527,34.789V21.674     h23.66v13.113h-23.66V34.789z" fill="#FFFFFF"/>
		</g>
	</g>
</g>
<g>
</g>
<g>
</g>
<g>
</g>
<g>
</g>
<g>
</g>
<g>
</g>
<g>
</g>
<g>
</g>
<g>
</g>
<g>
</g>
<g>
</g>
<g>
</g>
<g>
</g>
<g>
</g>
<g>
</g>
</svg>
